<?xml version="1.0" encoding="UTF-8"?>
<svg xmlns="http://www.w3.org/2000/svg" width="62" height="40" viewBox="0 0 62 40" fill="none">
    <path d="M61.9283 24.996C61.9283 33.2821 55.2104 40 46.9243 40C43.8303 40 40.9482 39.0676 38.5641 37.4676C40.5244 35.4649 42.1561 33.1444 43.3641 30.5801C44.3919 31.2371 45.6104 31.6185 46.9243 31.6185C50.58 31.6185 53.5363 28.6517 53.5363 24.996C53.5363 21.3404 50.58 18.3735 46.9243 18.3735C46.4934 18.3735 46.0731 18.4124 45.6634 18.4901C43.2051 18.9669 41.2343 20.8 40.5561 23.1735C40.4431 23.5479 40.3689 23.9364 40.3336 24.3391C39.4965 28.1007 37.6104 31.4702 34.9932 34.098C33.8276 35.2636 32.5243 36.2914 31.115 37.1497C28.1058 38.9616 24.5773 40 20.8051 40C9.75348 40 0.799805 31.0464 0.799805 20.0053C0.799805 8.95364 9.75348 0 20.8051 0C27.2899 0 33.0542 3.09404 36.7098 7.87285C34.2515 9.3351 32.1323 11.3166 30.5111 13.6689C28.4449 10.5007 24.874 8.41325 20.8051 8.41325C14.4051 8.41325 9.21309 13.6053 9.21309 20.0053C9.21309 26.4053 14.4051 31.5974 20.8051 31.5974C23.2952 31.5974 25.6051 30.8132 27.4912 29.4781C29.78 27.857 31.4542 25.4411 32.1005 22.6225C32.1712 22.3329 32.2276 22.0362 32.27 21.7324C33.1707 17.6636 35.7243 14.2199 39.1892 12.1324C40.5879 11.2848 42.1244 10.6702 43.7561 10.3205C44.7734 10.098 45.833 9.99205 46.9243 9.99205C55.2104 9.99205 61.9283 16.7099 61.9283 24.996Z"
          fill="#0dcaf0"></path>
</svg>